# MagicaVoxel @ Ephtracy

# group
o Flower1-1

# material
mtllib 3DFlower.mtl
usemtl palette

# normals
vn -1 0 0
vn 1 0 0
vn 0 -1 0
vn 0 1 0
vn 0 0 -1
vn 0 0 1

# texcoords
vt 0.00195312 0.5
vt 0.0214844 0.5
vt 0.888672 0.5

# verts
v -1.1 1 -0.4
v -1.1 1.2 -0.4
v -1.1 1 0.3
v -1.1 1.2 0.3
v -0.9 2 -0.4
v -0.9 2.2 -0.4
v -0.9 1.6 -0.3
v -0.9 2 -0.3
v -0.9 1.6 0.2
v -0.9 2.2 0.2
v -0.8 0.8 -0.2
v -0.8 1 -0.2
v -0.8 0.8 0.1
v -0.8 1 0.1
v -0.7 2.2 -0.3
v -0.7 2.4 -0.3
v -0.7 1.4 -0.2
v -0.7 1.6 -0.2
v -0.7 2.2 0.1
v -0.7 2.4 0.1
v -0.7 1.6 0.2
v -0.7 1.4 0.3
v -0.7 1.6 0.3
v -0.5 2.4 -0.5
v -0.5 2.6 -0.5
v -0.5 1.2 -0.3
v -0.5 1.4 -0.3
v -0.5 2.4 -0.3
v -0.5 1.4 -0.2
v -0.5 2.4 0.1
v -0.5 2.6 0.1
v -0.5 1.2 0.2
v -0.5 1.4 0.3
v -0.5 1.2 0.4
v -0.5 1.4 0.4
v -0.4 0.6 -0.3
v -0.4 0.8 -0.3
v -0.4 0.8 -0.2
v -0.4 0.8 0.1
v -0.4 0.6 0.2
v -0.4 0.8 0.2
v -0.3 2.2 -0.5
v -0.3 2.4 -0.5
v -0.3 2.6 -0.5
v -0.3 2.8 -0.5
v -0.3 2.2 -0.4
v -0.3 1 -0.3
v -0.3 1.2 -0.3
v -0.3 1 -0.2
v -0.3 1.4 -0.1
v -0.3 1.6 -0.1
v -0.3 1 0.1
v -0.3 2 0.1
v -0.3 2.2 0.1
v -0.3 2.4 0.1
v -0.3 2.6 0.1
v -0.3 2.8 0.1
v -0.3 1.4 0.2
v -0.3 1.6 0.2
v -0.3 1.8 0.2
v -0.3 2 0.2
v -0.3 2.2 0.2
v -0.3 2.4 0.2
v -0.3 1.6 0.3
v -0.3 1.8 0.3
v -0.3 1 0.4
v -0.3 1.2 0.4
v -0.2 0.8 -0.3
v -0.2 1 -0.3
v -0.2 1.4 -0.3
v -0.2 2 -0.3
v -0.2 0 -0.2
v -0.2 0.6 -0.2
v -0.2 0.8 -0.2
v -0.2 1 -0.2
v -0.2 1.6 -0.2
v -0.2 2 -0.2
v -0.2 1.4 -0.1
v -0.2 1.6 -0.1
v -0.2 0 0.1
v -0.2 0.6 0.1
v -0.1 1.8 0.2
v -0.1 2 0.2
v -0.1 1.8 0.3
v -0.1 2 0.3
v 0.3 2 -0.4
v 0.3 2.2 -0.4
v 0.3 2 -0.2
v 0.3 2.2 -0.2
v 0.3 1.2 0.3
v 0.3 1.4 0.3
v 0.3 1.2 0.4
v 0.3 1.4 0.4
v 0.5 1 -0.3
v 0.5 1.2 -0.3
v 0.5 1.6 -0.3
v 0.5 2 -0.3
v 0.5 2.2 -0.3
v 0.5 2.4 -0.3
v 0.5 1 -0.2
v 0.5 1.4 -0.2
v 0.5 1.6 -0.2
v 0.5 1.8 -0.2
v 0.5 2 -0.2
v 0.5 1 0.1
v 0.5 2 0.1
v 0.5 2.2 0.1
v 0.5 2.4 0.1
v 0.5 1 0.2
v 0.5 1.2 0.2
v 0.5 1.6 0.2
v 0.5 2 0.2
v 0.5 2.2 0.2
v 0.5 1.4 0.3
v 0.5 1.6 0.3
v 0.8 1 -0.4
v 0.8 1.2 -0.4
v 0.8 1 -0.3
v 0.8 1.2 -0.3
v 0.8 1 0.2
v 0.8 1.2 0.2
v 0.8 1 0.3
v 0.8 1.2 0.3
v -0.8 1 -0.4
v -0.8 1.2 -0.4
v -0.8 1 -0.3
v -0.8 1.2 -0.3
v -0.8 1 0.2
v -0.8 1.2 0.2
v -0.8 1 0.3
v -0.8 1.2 0.3
v -0.5 1 -0.3
v -0.5 1.2 -0.3
v -0.5 1.6 -0.3
v -0.5 2 -0.3
v -0.5 2.2 -0.3
v -0.5 2.4 -0.3
v -0.5 1 -0.2
v -0.5 1.4 -0.2
v -0.5 1.6 -0.2
v -0.5 1.8 -0.2
v -0.5 2 -0.2
v -0.5 1 0.1
v -0.5 2 0.1
v -0.5 2.2 0.1
v -0.5 2.4 0.1
v -0.5 1 0.2
v -0.5 1.2 0.2
v -0.5 1.6 0.2
v -0.5 2 0.2
v -0.5 2.2 0.2
v -0.5 1.4 0.3
v -0.5 1.6 0.3
v -0.3 2 -0.4
v -0.3 2.2 -0.4
v -0.3 2 -0.2
v -0.3 2.2 -0.2
v -0.3 1.2 0.3
v -0.3 1.4 0.3
v -0.3 1.2 0.4
v -0.3 1.4 0.4
v 0.1 1.8 0.2
v 0.1 2 0.2
v 0.1 1.8 0.3
v 0.1 2 0.3
v 0.2 0.8 -0.3
v 0.2 1 -0.3
v 0.2 1.4 -0.3
v 0.2 2 -0.3
v 0.2 0 -0.2
v 0.2 0.6 -0.2
v 0.2 0.8 -0.2
v 0.2 1 -0.2
v 0.2 1.4 -0.2
v 0.2 1.6 -0.2
v 0.2 2 -0.2
v 0.2 0 0.1
v 0.2 0.6 0.1
v 0.3 2.2 -0.5
v 0.3 2.4 -0.5
v 0.3 2.6 -0.5
v 0.3 2.8 -0.5
v 0.3 2.2 -0.4
v 0.3 1 -0.3
v 0.3 1.2 -0.3
v 0.3 1 -0.2
v 0.3 1.4 -0.2
v 0.3 1.6 -0.2
v 0.3 1 0.1
v 0.3 2 0.1
v 0.3 2.2 0.1
v 0.3 2.4 0.1
v 0.3 2.6 0.1
v 0.3 2.8 0.1
v 0.3 1.4 0.2
v 0.3 1.6 0.2
v 0.3 1.8 0.2
v 0.3 2 0.2
v 0.3 2.2 0.2
v 0.3 2.4 0.2
v 0.3 1.6 0.3
v 0.3 1.8 0.3
v 0.3 1 0.4
v 0.3 1.2 0.4
v 0.4 0.6 -0.3
v 0.4 0.8 -0.3
v 0.4 0.8 -0.2
v 0.4 0.8 0.1
v 0.4 0.6 0.2
v 0.4 0.8 0.2
v 0.5 2.4 -0.5
v 0.5 2.6 -0.5
v 0.5 1.2 -0.3
v 0.5 1.4 -0.3
v 0.5 2.4 -0.3
v 0.5 1.4 -0.2
v 0.5 2.4 0.1
v 0.5 2.6 0.1
v 0.5 1.2 0.2
v 0.5 1.4 0.3
v 0.5 1.2 0.4
v 0.5 1.4 0.4
v 0.7 2.2 -0.3
v 0.7 2.4 -0.3
v 0.7 1.4 -0.2
v 0.7 1.6 -0.2
v 0.7 2.2 0.1
v 0.7 2.4 0.1
v 0.7 1.6 0.2
v 0.7 1.4 0.3
v 0.7 1.6 0.3
v 0.8 2 -0.4
v 0.8 2.2 -0.4
v 0.8 2 -0.3
v 0.8 2.2 -0.3
v 0.8 0.8 -0.2
v 0.8 1 -0.2
v 0.8 0.8 0.1
v 0.8 1 0.1
v 0.9 1.6 -0.3
v 0.9 2.2 -0.3
v 0.9 1.6 0.2
v 0.9 2.2 0.2
v 1.1 1 -0.4
v 1.1 1.2 -0.4
v 1.1 1 0.3
v 1.1 1.2 0.3
v -0.2 0 -0.2
v -0.2 0 0.1
v 0.2 0 -0.2
v 0.2 0 0.1
v -0.4 0.6 -0.3
v -0.4 0.6 0.2
v -0.2 0.6 -0.2
v -0.2 0.6 0.1
v 0.2 0.6 -0.2
v 0.2 0.6 0.1
v 0.4 0.6 -0.3
v 0.4 0.6 0.2
v -0.8 0.8 -0.2
v -0.8 0.8 0.1
v -0.4 0.8 -0.2
v -0.4 0.8 0.1
v 0.4 0.8 -0.2
v 0.4 0.8 0.1
v 0.8 0.8 -0.2
v 0.8 0.8 0.1
v -1.1 1 -0.4
v -1.1 1 0.3
v -0.8 1 -0.4
v -0.8 1 -0.3
v -0.8 1 -0.2
v -0.8 1 0.1
v -0.8 1 0.2
v -0.8 1 0.3
v -0.5 1 -0.3
v -0.5 1 -0.2
v -0.5 1 0.1
v -0.5 1 0.2
v -0.3 1 -0.3
v -0.3 1 -0.2
v -0.3 1 0.1
v -0.3 1 0.4
v -0.2 1 -0.3
v -0.2 1 -0.2
v 0.2 1 -0.3
v 0.2 1 -0.2
v 0.3 1 -0.3
v 0.3 1 -0.2
v 0.3 1 0.1
v 0.3 1 0.4
v 0.5 1 -0.3
v 0.5 1 -0.2
v 0.5 1 0.1
v 0.5 1 0.2
v 0.8 1 -0.4
v 0.8 1 -0.3
v 0.8 1 -0.2
v 0.8 1 0.1
v 0.8 1 0.2
v 0.8 1 0.3
v 1.1 1 -0.4
v 1.1 1 0.3
v -0.5 1.2 -0.3
v -0.5 1.2 0.2
v -0.5 1.2 0.4
v -0.3 1.2 -0.3
v -0.3 1.2 0.4
v 0.3 1.2 -0.3
v 0.3 1.2 0.4
v 0.5 1.2 -0.3
v 0.5 1.2 0.2
v 0.5 1.2 0.4
v -0.7 1.4 -0.2
v -0.7 1.4 0.3
v -0.5 1.4 -0.2
v -0.5 1.4 0.3
v 0.5 1.4 -0.2
v 0.5 1.4 0.3
v 0.7 1.4 -0.2
v 0.7 1.4 0.3
v -0.9 1.6 -0.3
v -0.9 1.6 0.2
v -0.7 1.6 -0.2
v -0.7 1.6 0.2
v -0.5 1.6 -0.3
v -0.5 1.6 -0.2
v -0.5 1.6 0.2
v -0.3 1.6 -0.2
v -0.3 1.6 -0.1
v -0.3 1.6 0.2
v -0.3 1.6 0.3
v -0.2 1.6 -0.2
v -0.2 1.6 -0.1
v 0.3 1.6 -0.2
v 0.3 1.6 0.2
v 0.3 1.6 0.3
v 0.5 1.6 -0.3
v 0.5 1.6 -0.2
v 0.5 1.6 0.2
v 0.7 1.6 -0.2
v 0.7 1.6 0.2
v 0.9 1.6 -0.3
v 0.9 1.6 0.2
v -0.9 2 -0.4
v -0.9 2 -0.3
v -0.5 2 -0.3
v -0.5 2 -0.2
v -0.3 2 -0.4
v -0.3 2 -0.2
v 0.3 2 -0.4
v 0.3 2 -0.2
v 0.5 2 -0.3
v 0.5 2 -0.2
v 0.8 2 -0.4
v 0.8 2 -0.3
v -0.3 2.2 -0.5
v -0.3 2.2 -0.4
v -0.3 2.2 -0.2
v 0.3 2.2 -0.5
v 0.3 2.2 -0.4
v 0.3 2.2 -0.2
v -0.5 2.4 -0.5
v -0.5 2.4 -0.3
v -0.5 2.4 0.1
v -0.3 2.4 -0.5
v -0.3 2.4 0.1
v 0.3 2.4 -0.5
v 0.3 2.4 0.1
v 0.5 2.4 -0.5
v 0.5 2.4 -0.3
v 0.5 2.4 0.1
v -0.4 0.8 -0.3
v -0.4 0.8 -0.2
v -0.4 0.8 0.1
v -0.4 0.8 0.2
v -0.2 0.8 -0.3
v -0.2 0.8 -0.2
v 0.2 0.8 -0.3
v 0.2 0.8 -0.2
v 0.4 0.8 -0.3
v 0.4 0.8 -0.2
v 0.4 0.8 0.1
v 0.4 0.8 0.2
v -0.5 1 -0.2
v -0.5 1 0.1
v -0.3 1 -0.2
v -0.3 1 0.1
v 0.3 1 -0.2
v 0.3 1 0.1
v 0.5 1 -0.2
v 0.5 1 0.1
v -1.1 1.2 -0.4
v -1.1 1.2 0.3
v -0.8 1.2 -0.4
v -0.8 1.2 -0.3
v -0.8 1.2 0.2
v -0.8 1.2 0.3
v -0.5 1.2 -0.3
v -0.5 1.2 0.2
v -0.3 1.2 0.3
v -0.3 1.2 0.4
v 0.3 1.2 0.3
v 0.3 1.2 0.4
v 0.5 1.2 -0.3
v 0.5 1.2 0.2
v 0.8 1.2 -0.4
v 0.8 1.2 -0.3
v 0.8 1.2 0.2
v 0.8 1.2 0.3
v 1.1 1.2 -0.4
v 1.1 1.2 0.3
v -0.5 1.4 -0.3
v -0.5 1.4 -0.2
v -0.5 1.4 0.3
v -0.5 1.4 0.4
v -0.3 1.4 -0.1
v -0.3 1.4 0.2
v -0.3 1.4 0.3
v -0.3 1.4 0.4
v -0.2 1.4 -0.3
v -0.2 1.4 -0.1
v 0.2 1.4 -0.3
v 0.2 1.4 -0.2
v 0.3 1.4 -0.2
v 0.3 1.4 0.2
v 0.3 1.4 0.3
v 0.3 1.4 0.4
v 0.5 1.4 -0.3
v 0.5 1.4 -0.2
v 0.5 1.4 0.3
v 0.5 1.4 0.4
v -0.7 1.6 0.2
v -0.7 1.6 0.3
v -0.5 1.6 0.2
v -0.5 1.6 0.3
v 0.5 1.6 0.2
v 0.5 1.6 0.3
v 0.7 1.6 0.2
v 0.7 1.6 0.3
v -0.3 1.8 0.2
v -0.3 1.8 0.3
v -0.1 1.8 0.2
v -0.1 1.8 0.3
v 0.1 1.8 0.2
v 0.1 1.8 0.3
v 0.3 1.8 0.2
v 0.3 1.8 0.3
v -0.5 2 0.1
v -0.5 2 0.2
v -0.3 2 0.1
v -0.3 2 0.2
v -0.2 2 -0.3
v -0.2 2 -0.2
v -0.1 2 0.2
v -0.1 2 0.3
v 0.1 2 0.2
v 0.1 2 0.3
v 0.2 2 -0.3
v 0.2 2 -0.2
v 0.3 2 0.1
v 0.3 2 0.2
v 0.5 2 0.1
v 0.5 2 0.2
v -0.9 2.2 -0.4
v -0.9 2.2 0.2
v -0.7 2.2 -0.3
v -0.7 2.2 0.1
v -0.5 2.2 -0.3
v -0.5 2.2 0.1
v -0.5 2.2 0.2
v -0.3 2.2 -0.4
v -0.3 2.2 0.1
v 0.3 2.2 -0.4
v 0.3 2.2 0.1
v 0.5 2.2 -0.3
v 0.5 2.2 0.1
v 0.5 2.2 0.2
v 0.7 2.2 -0.3
v 0.7 2.2 0.1
v 0.8 2.2 -0.4
v 0.8 2.2 -0.3
v 0.9 2.2 -0.3
v 0.9 2.2 0.2
v -0.7 2.4 -0.3
v -0.7 2.4 0.1
v -0.5 2.4 -0.3
v -0.5 2.4 0.1
v -0.3 2.4 0.1
v -0.3 2.4 0.2
v 0.3 2.4 0.1
v 0.3 2.4 0.2
v 0.5 2.4 -0.3
v 0.5 2.4 0.1
v 0.7 2.4 -0.3
v 0.7 2.4 0.1
v -0.5 2.6 -0.5
v -0.5 2.6 0.1
v -0.3 2.6 -0.5
v -0.3 2.6 0.1
v 0.3 2.6 -0.5
v 0.3 2.6 0.1
v 0.5 2.6 -0.5
v 0.5 2.6 0.1
v -0.3 2.8 -0.5
v -0.3 2.8 0.1
v 0.3 2.8 -0.5
v 0.3 2.8 0.1
v -0.3 2.2 -0.5
v 0.3 2.2 -0.5
v -0.5 2.4 -0.5
v -0.3 2.4 -0.5
v 0.3 2.4 -0.5
v 0.5 2.4 -0.5
v -0.5 2.6 -0.5
v -0.3 2.6 -0.5
v 0.3 2.6 -0.5
v 0.5 2.6 -0.5
v -0.3 2.8 -0.5
v 0.3 2.8 -0.5
v -1.1 1 -0.4
v -0.8 1 -0.4
v 0.8 1 -0.4
v 1.1 1 -0.4
v -1.1 1.2 -0.4
v -0.8 1.2 -0.4
v 0.8 1.2 -0.4
v 1.1 1.2 -0.4
v -0.9 2 -0.4
v -0.3 2 -0.4
v 0.3 2 -0.4
v 0.8 2 -0.4
v -0.9 2.2 -0.4
v -0.3 2.2 -0.4
v 0.3 2.2 -0.4
v 0.8 2.2 -0.4
v -0.4 0.6 -0.3
v 0.4 0.6 -0.3
v -0.4 0.8 -0.3
v -0.2 0.8 -0.3
v 0.2 0.8 -0.3
v 0.4 0.8 -0.3
v -0.8 1 -0.3
v -0.5 1 -0.3
v -0.3 1 -0.3
v -0.2 1 -0.3
v 0.2 1 -0.3
v 0.3 1 -0.3
v 0.5 1 -0.3
v 0.8 1 -0.3
v -0.8 1.2 -0.3
v -0.5 1.2 -0.3
v -0.3 1.2 -0.3
v 0.3 1.2 -0.3
v 0.5 1.2 -0.3
v 0.8 1.2 -0.3
v -0.5 1.4 -0.3
v -0.2 1.4 -0.3
v 0.2 1.4 -0.3
v 0.5 1.4 -0.3
v -0.9 1.6 -0.3
v -0.5 1.6 -0.3
v 0.5 1.6 -0.3
v 0.9 1.6 -0.3
v -0.9 2 -0.3
v -0.5 2 -0.3
v -0.2 2 -0.3
v 0.2 2 -0.3
v 0.5 2 -0.3
v 0.8 2 -0.3
v -0.7 2.2 -0.3
v -0.5 2.2 -0.3
v 0.5 2.2 -0.3
v 0.7 2.2 -0.3
v 0.8 2.2 -0.3
v 0.9 2.2 -0.3
v -0.7 2.4 -0.3
v -0.5 2.4 -0.3
v 0.5 2.4 -0.3
v 0.7 2.4 -0.3
v -0.2 0 -0.2
v 0.2 0 -0.2
v -0.2 0.6 -0.2
v 0.2 0.6 -0.2
v -0.8 0.8 -0.2
v -0.4 0.8 -0.2
v -0.2 0.8 -0.2
v 0.2 0.8 -0.2
v 0.4 0.8 -0.2
v 0.8 0.8 -0.2
v -0.8 1 -0.2
v -0.5 1 -0.2
v -0.3 1 -0.2
v -0.2 1 -0.2
v 0.2 1 -0.2
v 0.3 1 -0.2
v 0.5 1 -0.2
v 0.8 1 -0.2
v -0.7 1.4 -0.2
v -0.5 1.4 -0.2
v 0.2 1.4 -0.2
v 0.3 1.4 -0.2
v 0.5 1.4 -0.2
v 0.7 1.4 -0.2
v -0.7 1.6 -0.2
v -0.5 1.6 -0.2
v -0.3 1.6 -0.2
v -0.2 1.6 -0.2
v 0.2 1.6 -0.2
v 0.3 1.6 -0.2
v 0.5 1.6 -0.2
v 0.7 1.6 -0.2
v -0.5 1.8 -0.2
v -0.3 1.8 -0.2
v 0.3 1.8 -0.2
v 0.5 1.8 -0.2
v -0.5 2 -0.2
v -0.3 2 -0.2
v -0.2 2 -0.2
v 0.2 2 -0.2
v 0.3 2 -0.2
v 0.5 2 -0.2
v -0.3 2.2 -0.2
v 0.3 2.2 -0.2
v -0.3 1.4 -0.1
v -0.2 1.4 -0.1
v -0.3 1.6 -0.1
v -0.2 1.6 -0.1
v -0.2 0 0.1
v 0.2 0 0.1
v -0.2 0.6 0.1
v 0.2 0.6 0.1
v -0.8 0.8 0.1
v -0.4 0.8 0.1
v 0.4 0.8 0.1
v 0.8 0.8 0.1
v -0.8 1 0.1
v -0.5 1 0.1
v -0.3 1 0.1
v 0.3 1 0.1
v 0.5 1 0.1
v 0.8 1 0.1
v -0.5 2 0.1
v -0.3 2 0.1
v 0.3 2 0.1
v 0.5 2 0.1
v -0.7 2.2 0.1
v -0.5 2.2 0.1
v -0.3 2.2 0.1
v 0.3 2.2 0.1
v 0.5 2.2 0.1
v 0.7 2.2 0.1
v -0.7 2.4 0.1
v -0.5 2.4 0.1
v -0.3 2.4 0.1
v 0.3 2.4 0.1
v 0.5 2.4 0.1
v 0.7 2.4 0.1
v -0.5 2.6 0.1
v -0.3 2.6 0.1
v 0.3 2.6 0.1
v 0.5 2.6 0.1
v -0.3 2.8 0.1
v 0.3 2.8 0.1
v -0.4 0.6 0.2
v 0.4 0.6 0.2
v -0.4 0.8 0.2
v 0.4 0.8 0.2
v -0.8 1 0.2
v -0.5 1 0.2
v 0.5 1 0.2
v 0.8 1 0.2
v -0.8 1.2 0.2
v -0.5 1.2 0.2
v 0.5 1.2 0.2
v 0.8 1.2 0.2
v -0.3 1.4 0.2
v 0.3 1.4 0.2
v -0.9 1.6 0.2
v -0.7 1.6 0.2
v -0.5 1.6 0.2
v -0.3 1.6 0.2
v 0.3 1.6 0.2
v 0.5 1.6 0.2
v 0.7 1.6 0.2
v 0.9 1.6 0.2
v -0.5 1.8 0.2
v -0.3 1.8 0.2
v -0.1 1.8 0.2
v 0.1 1.8 0.2
v 0.3 1.8 0.2
v 0.5 1.8 0.2
v -0.5 2 0.2
v -0.3 2 0.2
v -0.1 2 0.2
v 0.1 2 0.2
v 0.3 2 0.2
v 0.5 2 0.2
v -0.9 2.2 0.2
v -0.5 2.2 0.2
v -0.3 2.2 0.2
v 0.3 2.2 0.2
v 0.5 2.2 0.2
v 0.9 2.2 0.2
v -0.3 2.4 0.2
v 0.3 2.4 0.2
v -1.1 1 0.3
v -0.8 1 0.3
v 0.8 1 0.3
v 1.1 1 0.3
v -1.1 1.2 0.3
v -0.8 1.2 0.3
v -0.3 1.2 0.3
v 0.3 1.2 0.3
v 0.8 1.2 0.3
v 1.1 1.2 0.3
v -0.7 1.4 0.3
v -0.5 1.4 0.3
v -0.3 1.4 0.3
v 0.3 1.4 0.3
v 0.5 1.4 0.3
v 0.7 1.4 0.3
v -0.7 1.6 0.3
v -0.5 1.6 0.3
v -0.3 1.6 0.3
v 0.3 1.6 0.3
v 0.5 1.6 0.3
v 0.7 1.6 0.3
v -0.3 1.8 0.3
v -0.1 1.8 0.3
v 0.1 1.8 0.3
v 0.3 1.8 0.3
v -0.1 2 0.3
v 0.1 2 0.3
v -0.3 1 0.4
v 0.3 1 0.4
v -0.5 1.2 0.4
v -0.3 1.2 0.4
v 0.3 1.2 0.4
v 0.5 1.2 0.4
v -0.5 1.4 0.4
v -0.3 1.4 0.4
v 0.3 1.4 0.4
v 0.5 1.4 0.4

# faces
f 3/3/1 2/3/1 1/3/1
f 4/3/1 2/3/1 3/3/1
f 8/2/1 6/2/1 5/2/1
f 9/2/1 8/2/1 7/2/1
f 10/2/1 6/2/1 8/2/1
f 10/2/1 8/2/1 9/2/1
f 13/3/1 12/3/1 11/3/1
f 14/3/1 12/3/1 13/3/1
f 19/2/1 16/2/1 15/2/1
f 20/2/1 16/2/1 19/2/1
f 21/2/1 18/2/1 17/2/1
f 22/2/1 21/2/1 17/2/1
f 23/2/1 21/2/1 22/2/1
f 28/2/1 25/2/1 24/2/1
f 29/2/1 27/2/1 26/2/1
f 30/2/1 25/2/1 28/2/1
f 31/2/1 25/2/1 30/2/1
f 32/2/1 29/2/1 26/2/1
f 33/2/1 29/2/1 32/2/1
f 34/2/1 33/2/1 32/2/1
f 35/2/1 33/2/1 34/2/1
f 38/3/1 37/3/1 36/3/1
f 39/3/1 38/3/1 36/3/1
f 40/3/1 39/3/1 36/3/1
f 41/3/1 39/3/1 40/3/1
f 46/2/1 43/2/1 42/2/1
f 49/2/1 48/2/1 47/2/1
f 52/2/1 48/2/1 49/2/1
f 54/2/1 43/2/1 46/2/1
f 55/2/1 43/2/1 54/2/1
f 56/2/1 45/2/1 44/2/1
f 57/2/1 45/2/1 56/2/1
f 58/2/1 51/2/1 50/2/1
f 59/2/1 51/2/1 58/2/1
f 61/1/1 54/1/1 53/1/1
f 62/2/1 55/2/1 54/2/1
f 62/1/1 54/1/1 61/1/1
f 63/2/1 55/2/1 62/2/1
f 64/1/1 60/1/1 59/1/1
f 65/1/1 60/1/1 64/1/1
f 66/2/1 48/2/1 52/2/1
f 67/2/1 48/2/1 66/2/1
f 74/3/1 69/3/1 68/3/1
f 75/3/1 69/3/1 74/3/1
f 76/3/1 71/3/1 70/3/1
f 77/3/1 71/3/1 76/3/1
f 78/3/1 76/3/1 70/3/1
f 79/3/1 76/3/1 78/3/1
f 80/3/1 73/3/1 72/3/1
f 81/3/1 73/3/1 80/3/1
f 84/1/1 83/1/1 82/1/1
f 85/1/1 83/1/1 84/1/1
f 88/2/1 87/2/1 86/2/1
f 89/2/1 87/2/1 88/2/1
f 92/2/1 91/2/1 90/2/1
f 93/2/1 91/2/1 92/2/1
f 100/3/1 95/3/1 94/3/1
f 102/2/1 97/2/1 96/2/1
f 103/2/1 97/2/1 102/2/1
f 104/2/1 97/2/1 103/2/1
f 105/3/1 95/3/1 100/3/1
f 107/2/1 99/2/1 98/2/1
f 108/2/1 99/2/1 107/2/1
f 109/3/1 95/3/1 105/3/1
f 110/3/1 95/3/1 109/3/1
f 111/2/1 102/2/1 101/2/1
f 112/2/1 107/2/1 106/2/1
f 113/2/1 107/2/1 112/2/1
f 114/2/1 111/2/1 101/2/1
f 115/2/1 111/2/1 114/2/1
f 118/3/1 117/3/1 116/3/1
f 119/3/1 117/3/1 118/3/1
f 122/3/1 121/3/1 120/3/1
f 123/3/1 121/3/1 122/3/1
f 124/3/2 125/3/2 126/3/2
f 126/3/2 125/3/2 127/3/2
f 128/3/2 129/3/2 130/3/2
f 130/3/2 129/3/2 131/3/2
f 132/3/2 133/3/2 138/3/2
f 134/2/2 135/2/2 140/2/2
f 140/2/2 135/2/2 141/2/2
f 141/2/2 135/2/2 142/2/2
f 138/3/2 133/3/2 143/3/2
f 136/2/2 137/2/2 145/2/2
f 145/2/2 137/2/2 146/2/2
f 143/3/2 133/3/2 147/3/2
f 147/3/2 133/3/2 148/3/2
f 139/2/2 140/2/2 149/2/2
f 144/2/2 145/2/2 150/2/2
f 150/2/2 145/2/2 151/2/2
f 139/2/2 149/2/2 152/2/2
f 152/2/2 149/2/2 153/2/2
f 154/2/2 155/2/2 156/2/2
f 156/2/2 155/2/2 157/2/2
f 158/2/2 159/2/2 160/2/2
f 160/2/2 159/2/2 161/2/2
f 162/1/2 163/1/2 164/1/2
f 164/1/2 163/1/2 165/1/2
f 166/3/2 167/3/2 172/3/2
f 172/3/2 167/3/2 173/3/2
f 168/3/2 169/3/2 174/3/2
f 174/3/2 169/3/2 175/3/2
f 175/3/2 169/3/2 176/3/2
f 170/3/2 171/3/2 177/3/2
f 177/3/2 171/3/2 178/3/2
f 179/2/2 180/2/2 183/2/2
f 184/2/2 185/2/2 186/2/2
f 186/2/2 185/2/2 189/2/2
f 183/2/2 180/2/2 191/2/2
f 191/2/2 180/2/2 192/2/2
f 181/2/2 182/2/2 193/2/2
f 193/2/2 182/2/2 194/2/2
f 187/2/2 188/2/2 195/2/2
f 195/2/2 188/2/2 196/2/2
f 190/1/2 191/1/2 198/1/2
f 191/2/2 192/2/2 199/2/2
f 198/1/2 191/1/2 199/1/2
f 199/2/2 192/2/2 200/2/2
f 196/1/2 197/1/2 201/1/2
f 201/1/2 197/1/2 202/1/2
f 189/2/2 185/2/2 203/2/2
f 203/2/2 185/2/2 204/2/2
f 205/3/2 206/3/2 207/3/2
f 205/3/2 207/3/2 208/3/2
f 205/3/2 208/3/2 209/3/2
f 209/3/2 208/3/2 210/3/2
f 211/2/2 212/2/2 215/2/2
f 213/2/2 214/2/2 216/2/2
f 215/2/2 212/2/2 217/2/2
f 217/2/2 212/2/2 218/2/2
f 213/2/2 216/2/2 219/2/2
f 219/2/2 216/2/2 220/2/2
f 219/2/2 220/2/2 221/2/2
f 221/2/2 220/2/2 222/2/2
f 223/2/2 224/2/2 227/2/2
f 227/2/2 224/2/2 228/2/2
f 225/2/2 226/2/2 229/2/2
f 225/2/2 229/2/2 230/2/2
f 230/2/2 229/2/2 231/2/2
f 232/2/2 233/2/2 234/2/2
f 234/2/2 233/2/2 235/2/2
f 236/3/2 237/3/2 238/3/2
f 238/3/2 237/3/2 239/3/2
f 240/2/2 241/2/2 242/2/2
f 242/2/2 241/2/2 243/2/2
f 244/3/2 245/3/2 246/3/2
f 246/3/2 245/3/2 247/3/2
f 250/3/3 249/3/3 248/3/3
f 251/3/3 249/3/3 250/3/3
f 254/3/3 253/3/3 252/3/3
f 255/3/3 253/3/3 254/3/3
f 256/3/3 254/3/3 252/3/3
f 257/3/3 253/3/3 255/3/3
f 258/3/3 256/3/3 252/3/3
f 258/3/3 257/3/3 256/3/3
f 259/3/3 253/3/3 257/3/3
f 259/3/3 257/3/3 258/3/3
f 262/3/3 261/3/3 260/3/3
f 263/3/3 261/3/3 262/3/3
f 266/3/3 265/3/3 264/3/3
f 267/3/3 265/3/3 266/3/3
f 270/3/3 269/3/3 268/3/3
f 271/3/3 269/3/3 270/3/3
f 272/3/3 269/3/3 271/3/3
f 273/3/3 269/3/3 272/3/3
f 274/3/3 269/3/3 273/3/3
f 275/3/3 269/3/3 274/3/3
f 276/3/3 272/3/3 271/3/3
f 277/3/3 272/3/3 276/3/3
f 278/3/3 274/3/3 273/3/3
f 279/3/3 274/3/3 278/3/3
f 284/2/3 281/2/3 280/2/3
f 285/2/3 281/2/3 284/2/3
f 288/2/3 287/2/3 286/2/3
f 289/2/3 287/2/3 288/2/3
f 290/2/3 283/2/3 282/2/3
f 291/2/3 283/2/3 290/2/3
f 297/3/3 293/3/3 292/3/3
f 298/3/3 293/3/3 297/3/3
f 299/3/3 295/3/3 294/3/3
f 300/3/3 295/3/3 299/3/3
f 302/3/3 298/3/3 297/3/3
f 302/3/3 301/3/3 300/3/3
f 302/3/3 300/3/3 299/3/3
f 302/3/3 299/3/3 298/3/3
f 302/3/3 297/3/3 296/3/3
f 303/3/3 301/3/3 302/3/3
f 307/2/3 305/2/3 304/2/3
f 307/2/3 306/2/3 305/2/3
f 308/2/3 306/2/3 307/2/3
f 311/2/3 310/2/3 309/2/3
f 312/2/3 310/2/3 311/2/3
f 313/2/3 310/2/3 312/2/3
f 316/2/3 315/2/3 314/2/3
f 317/2/3 315/2/3 316/2/3
f 320/2/3 319/2/3 318/2/3
f 321/2/3 319/2/3 320/2/3
f 324/2/3 323/2/3 322/2/3
f 325/2/3 323/2/3 324/2/3
f 326/2/3 324/2/3 322/2/3
f 327/2/3 324/2/3 326/2/3
f 329/2/3 328/2/3 327/2/3
f 330/2/3 328/2/3 329/2/3
f 331/2/3 328/2/3 330/2/3
f 333/3/3 330/3/3 329/3/3
f 334/3/3 330/3/3 333/3/3
f 336/1/3 332/1/3 331/1/3
f 337/1/3 332/1/3 336/1/3
f 339/2/3 336/2/3 335/2/3
f 340/2/3 336/2/3 339/2/3
f 341/2/3 339/2/3 338/2/3
f 343/2/3 341/2/3 338/2/3
f 343/2/3 342/2/3 341/2/3
f 344/2/3 342/2/3 343/2/3
f 347/2/3 346/2/3 345/2/3
f 349/2/3 347/2/3 345/2/3
f 349/2/3 348/2/3 347/2/3
f 350/2/3 348/2/3 349/2/3
f 353/2/3 352/2/3 351/2/3
f 354/2/3 352/2/3 353/2/3
f 355/2/3 353/2/3 351/2/3
f 356/2/3 353/2/3 355/2/3
f 360/2/3 358/2/3 357/2/3
f 360/2/3 359/2/3 358/2/3
f 361/2/3 359/2/3 360/2/3
f 362/2/3 359/2/3 361/2/3
f 366/2/3 364/2/3 363/2/3
f 366/2/3 365/2/3 364/2/3
f 367/2/3 365/2/3 366/2/3
f 370/2/3 369/2/3 368/2/3
f 371/2/3 369/2/3 370/2/3
f 372/2/3 369/2/3 371/2/3
f 373/3/4 374/3/4 377/3/4
f 377/3/4 374/3/4 378/3/4
f 379/3/4 380/3/4 381/3/4
f 381/3/4 380/3/4 382/3/4
f 375/3/4 376/3/4 383/3/4
f 383/3/4 376/3/4 384/3/4
f 385/3/4 386/3/4 387/3/4
f 387/3/4 386/3/4 388/3/4
f 389/3/4 390/3/4 391/3/4
f 391/3/4 390/3/4 392/3/4
f 393/3/4 394/3/4 395/3/4
f 395/3/4 394/3/4 396/3/4
f 396/3/4 394/3/4 397/3/4
f 397/3/4 394/3/4 398/3/4
f 396/3/4 397/3/4 399/3/4
f 399/3/4 397/3/4 400/3/4
f 401/2/4 402/2/4 403/2/4
f 403/2/4 402/2/4 404/2/4
f 405/3/4 406/3/4 408/3/4
f 408/3/4 406/3/4 409/3/4
f 407/3/4 408/3/4 411/3/4
f 409/3/4 410/3/4 411/3/4
f 408/3/4 409/3/4 411/3/4
f 411/3/4 410/3/4 412/3/4
f 413/2/4 414/2/4 417/2/4
f 415/2/4 416/2/4 417/2/4
f 414/2/4 415/2/4 417/2/4
f 417/2/4 416/2/4 418/2/4
f 418/2/4 416/2/4 419/2/4
f 419/2/4 416/2/4 420/2/4
f 413/2/4 417/2/4 421/2/4
f 421/2/4 417/2/4 422/2/4
f 423/2/4 424/2/4 425/2/4
f 418/2/4 419/2/4 426/2/4
f 426/2/4 419/2/4 427/2/4
f 423/2/4 425/2/4 429/2/4
f 427/2/4 428/2/4 429/2/4
f 426/2/4 427/2/4 429/2/4
f 425/2/4 426/2/4 429/2/4
f 429/2/4 428/2/4 430/2/4
f 430/2/4 428/2/4 431/2/4
f 431/2/4 428/2/4 432/2/4
f 433/2/4 434/2/4 435/2/4
f 435/2/4 434/2/4 436/2/4
f 437/2/4 438/2/4 439/2/4
f 439/2/4 438/2/4 440/2/4
f 441/1/4 442/1/4 443/1/4
f 443/1/4 442/1/4 444/1/4
f 445/1/4 446/1/4 447/1/4
f 447/1/4 446/1/4 448/1/4
f 449/1/4 450/1/4 451/1/4
f 451/1/4 450/1/4 452/1/4
f 455/1/4 456/1/4 457/1/4
f 457/1/4 456/1/4 458/1/4
f 453/3/4 454/3/4 459/3/4
f 459/3/4 454/3/4 460/3/4
f 461/1/4 462/1/4 463/1/4
f 463/1/4 462/1/4 464/1/4
f 465/2/4 466/2/4 467/2/4
f 467/2/4 466/2/4 468/2/4
f 465/2/4 467/2/4 469/2/4
f 468/2/4 466/2/4 470/2/4
f 470/2/4 466/2/4 471/2/4
f 465/2/4 469/2/4 472/2/4
f 469/2/4 470/2/4 472/2/4
f 472/2/4 470/2/4 473/2/4
f 474/2/4 475/2/4 476/2/4
f 476/2/4 475/2/4 477/2/4
f 474/2/4 476/2/4 479/2/4
f 477/2/4 478/2/4 480/2/4
f 474/2/4 479/2/4 481/2/4
f 479/2/4 480/2/4 481/2/4
f 481/2/4 480/2/4 482/2/4
f 482/2/4 480/2/4 483/2/4
f 480/2/4 478/2/4 484/2/4
f 483/2/4 480/2/4 484/2/4
f 485/2/4 486/2/4 487/2/4
f 487/2/4 486/2/4 488/2/4
f 489/2/4 490/2/4 491/2/4
f 491/2/4 490/2/4 492/2/4
f 493/2/4 494/2/4 495/2/4
f 495/2/4 494/2/4 496/2/4
f 497/2/4 498/2/4 499/2/4
f 499/2/4 498/2/4 500/2/4
f 501/2/4 502/2/4 503/2/4
f 503/2/4 502/2/4 504/2/4
f 505/2/4 506/2/4 507/2/4
f 507/2/4 506/2/4 508/2/4
f 512/2/5 510/2/5 509/2/5
f 513/2/5 510/2/5 512/2/5
f 515/2/5 512/2/5 511/2/5
f 515/2/5 514/2/5 513/2/5
f 515/2/5 513/2/5 512/2/5
f 516/2/5 514/2/5 515/2/5
f 517/2/5 514/2/5 516/2/5
f 518/2/5 514/2/5 517/2/5
f 519/2/5 517/2/5 516/2/5
f 520/2/5 517/2/5 519/2/5
f 525/3/5 522/3/5 521/3/5
f 526/3/5 522/3/5 525/3/5
f 527/3/5 524/3/5 523/3/5
f 528/3/5 524/3/5 527/3/5
f 533/2/5 530/2/5 529/2/5
f 534/2/5 530/2/5 533/2/5
f 535/2/5 532/2/5 531/2/5
f 536/2/5 532/2/5 535/2/5
f 539/3/5 538/3/5 537/3/5
f 540/3/5 538/3/5 539/3/5
f 541/3/5 538/3/5 540/3/5
f 542/3/5 538/3/5 541/3/5
f 546/3/5 541/3/5 540/3/5
f 547/3/5 541/3/5 546/3/5
f 551/3/5 544/3/5 543/3/5
f 552/3/5 544/3/5 551/3/5
f 553/2/5 546/2/5 545/2/5
f 554/2/5 548/2/5 547/2/5
f 555/3/5 550/3/5 549/3/5
f 556/3/5 550/3/5 555/3/5
f 557/2/5 553/2/5 552/2/5
f 558/3/5 547/3/5 546/3/5
f 558/2/5 553/2/5 557/2/5
f 558/2/5 546/2/5 553/2/5
f 559/2/5 554/2/5 547/2/5
f 559/3/5 547/3/5 558/3/5
f 559/2/5 555/2/5 554/2/5
f 560/2/5 555/2/5 559/2/5
f 565/2/5 562/2/5 561/2/5
f 566/2/5 562/2/5 565/2/5
f 567/3/5 559/3/5 558/3/5
f 568/3/5 559/3/5 567/3/5
f 569/2/5 564/2/5 563/2/5
f 570/2/5 564/2/5 569/2/5
f 575/2/5 564/2/5 570/2/5
f 576/2/5 564/2/5 575/2/5
f 577/2/5 572/2/5 571/2/5
f 578/2/5 572/2/5 577/2/5
f 579/2/5 574/2/5 573/2/5
f 580/2/5 574/2/5 579/2/5
f 583/3/5 582/3/5 581/3/5
f 584/3/5 582/3/5 583/3/5
f 591/3/5 587/3/5 586/3/5
f 591/3/5 586/3/5 585/3/5
f 592/3/5 587/3/5 591/3/5
f 593/3/5 587/3/5 592/3/5
f 594/3/5 587/3/5 593/3/5
f 595/3/5 590/3/5 589/3/5
f 595/3/5 589/3/5 588/3/5
f 596/3/5 590/3/5 595/3/5
f 597/3/5 590/3/5 596/3/5
f 598/3/5 590/3/5 597/3/5
f 605/2/5 600/2/5 599/2/5
f 606/2/5 600/2/5 605/2/5
f 609/2/5 602/2/5 601/2/5
f 610/2/5 602/2/5 609/2/5
f 611/2/5 604/2/5 603/2/5
f 612/2/5 604/2/5 611/2/5
f 613/2/5 607/2/5 606/2/5
f 614/3/5 608/3/5 607/3/5
f 614/2/5 607/2/5 613/2/5
f 615/3/5 610/3/5 609/3/5
f 615/2/5 611/2/5 610/2/5
f 616/2/5 611/2/5 615/2/5
f 617/3/5 614/3/5 613/3/5
f 618/3/5 608/3/5 614/3/5
f 618/3/5 614/3/5 617/3/5
f 619/3/5 608/3/5 618/3/5
f 620/3/5 615/3/5 609/3/5
f 620/3/5 616/3/5 615/3/5
f 621/3/5 616/3/5 620/3/5
f 622/3/5 616/3/5 621/3/5
f 623/3/5 619/3/5 618/3/5
f 623/3/5 621/3/5 620/3/5
f 623/3/5 620/3/5 619/3/5
f 624/3/5 621/3/5 623/3/5
f 627/2/5 626/2/5 625/2/5
f 628/2/5 626/2/5 627/2/5
f 629/3/6 630/3/6 631/3/6
f 631/3/6 630/3/6 632/3/6
f 633/3/6 634/3/6 637/3/6
f 635/3/6 636/3/6 637/3/6
f 634/3/6 635/3/6 637/3/6
f 637/3/6 636/3/6 638/3/6
f 638/3/6 636/3/6 639/3/6
f 639/3/6 636/3/6 640/3/6
f 640/3/6 636/3/6 641/3/6
f 641/3/6 636/3/6 642/3/6
f 643/2/6 644/2/6 648/2/6
f 648/2/6 644/2/6 649/2/6
f 645/2/6 646/2/6 650/2/6
f 650/2/6 646/2/6 651/2/6
f 647/2/6 648/2/6 653/2/6
f 653/2/6 648/2/6 654/2/6
f 651/2/6 652/2/6 657/2/6
f 657/2/6 652/2/6 658/2/6
f 655/2/6 656/2/6 659/2/6
f 656/2/6 657/2/6 659/2/6
f 654/2/6 655/2/6 659/2/6
f 659/2/6 657/2/6 660/2/6
f 660/2/6 657/2/6 661/2/6
f 661/2/6 657/2/6 662/2/6
f 660/2/6 661/2/6 663/2/6
f 663/2/6 661/2/6 664/2/6
f 665/3/6 666/3/6 667/3/6
f 667/3/6 666/3/6 668/3/6
f 669/3/6 670/3/6 673/3/6
f 673/3/6 670/3/6 674/3/6
f 671/3/6 672/3/6 675/3/6
f 675/3/6 672/3/6 676/3/6
f 677/2/6 678/2/6 682/2/6
f 682/2/6 678/2/6 683/2/6
f 680/2/6 681/2/6 687/2/6
f 679/2/6 680/2/6 687/2/6
f 681/2/6 682/2/6 687/2/6
f 687/2/6 682/2/6 688/2/6
f 684/2/6 685/2/6 691/2/6
f 685/2/6 686/2/6 691/2/6
f 683/2/6 684/2/6 691/2/6
f 691/2/6 686/2/6 692/2/6
f 688/1/6 689/1/6 693/1/6
f 687/1/6 688/1/6 693/1/6
f 679/2/6 687/2/6 693/2/6
f 693/1/6 689/1/6 694/1/6
f 694/1/6 689/1/6 695/1/6
f 691/1/6 692/1/6 696/1/6
f 690/1/6 691/1/6 696/1/6
f 696/1/6 692/1/6 697/1/6
f 692/2/6 686/2/6 698/2/6
f 697/1/6 692/1/6 698/1/6
f 679/2/6 693/2/6 699/2/6
f 699/2/6 693/2/6 700/2/6
f 696/1/6 697/1/6 701/1/6
f 694/1/6 695/1/6 701/1/6
f 695/1/6 696/1/6 701/1/6
f 701/1/6 697/1/6 702/1/6
f 698/2/6 686/2/6 703/2/6
f 703/2/6 686/2/6 704/2/6
f 701/2/6 702/2/6 705/2/6
f 705/2/6 702/2/6 706/2/6
f 707/3/6 708/3/6 711/3/6
f 711/3/6 708/3/6 712/3/6
f 709/3/6 710/3/6 715/3/6
f 715/3/6 710/3/6 716/3/6
f 713/2/6 714/2/6 719/2/6
f 719/2/6 714/2/6 720/2/6
f 717/2/6 718/2/6 723/2/6
f 723/2/6 718/2/6 724/2/6
f 721/2/6 722/2/6 727/2/6
f 727/2/6 722/2/6 728/2/6
f 725/1/6 726/1/6 729/1/6
f 729/1/6 726/1/6 730/1/6
f 730/1/6 726/1/6 731/1/6
f 731/1/6 726/1/6 732/1/6
f 730/1/6 731/1/6 733/1/6
f 733/1/6 731/1/6 734/1/6
f 735/2/6 736/2/6 738/2/6
f 738/2/6 736/2/6 739/2/6
f 737/2/6 738/2/6 741/2/6
f 741/2/6 738/2/6 742/2/6
f 739/2/6 740/2/6 743/2/6
f 743/2/6 740/2/6 744/2/6
